{
  "accessors": [
    {
      "bufferView": 0,
      "componentType": 5126,
      "count": 4954,
      "max": [
        39.3700065612793,
        39.3700065612793,
        39.3700065612793
      ],
      "min": [
        -39.37009811401367,
        -39.37009811401367,
        -39.37009811401367
      ],
      "type": "VEC3"
    },
    {
      "bufferView": 1,
      "componentType": 5125,
      "count": 10894,
      "type": "SCALAR"
    },
    {
      "bufferView": 2,
      "componentType": 5126,
      "count": 4954,
      "type": "VEC3"
    },
    {
      "bufferView": 3,
      "componentType": 5126,
      "count": 4954,
      "type": "VEC4"
    },
    {
      "bufferView": 4,
      "componentType": 5126,
      "count": 4954,
      "type": "VEC2"
    }
  ],
  "asset": {
    "version": "2.0"
  },
  "bufferViews": [
    {
      "buffer": 0,
      "byteLength": 59448,
      "target": 34962
    },
    {
      "buffer": 1,
      "byteLength": 43576,
      "target": 34963
    },
    {
      "buffer": 2,
      "byteLength": 59448,
      "target": 34962
    },
    {
      "buffer": 3,
      "byteLength": 79264,
      "target": 34962
    },
    {
      "buffer": 4,
      "byteLength": 39632,
      "target": 34962
    }
  ],
  "buffers": [
    {
      "byteLength": 59448,
      "uri": "data:application/octet-stream;base64,"
    },
    {
      "byteLength": 43576,
      "uri": "data:application/octet-stream;base64,"
    },
    {
      "byteLength": 59448,
      "uri": "data:application/octet-stream;base64,"
    },
    {
      "byteLength": 79264,
      "uri": "data:application/octet-stream;base64,"
    },
    {
      "byteLength": 39632,
      "uri": "data:application/octet-stream;base64,"
    }
  ],
  "images": [
    {
      "uri": "textures/Sky_box_8K___Night_forest_scene_with_sky_a.png"
    }
  ],
  "materials": [
    {
      "doubleSided": true,
      "name": "Material #26",
      "pbrMetallicRoughness": {
        "baseColorFactor": [
          0.800000011920929,
          0.800000011920929,
          0.800000011920929,
          1.0
        ],
        "baseColorTexture": {
          "index": 0
        }
      }
    }
  ],
  "meshes": [
    {
      "name": "Sphere001_Material #26_0",
      "primitives": [
        {
          "attributes": {
            "NORMAL": 2,
            "POSITION": 0,
            "TANGENT": 3,
            "TEXCOORD_0": 4
          },
          "indices": 1,
          "material": 0,
          "mode": 5
        }
      ]
    }
  ],
  "nodes": [
    {
      "mesh": 0,
      "name": "Sphere001_Material #26_0"
    },
    {
      "children": [
        0
      ],
      "name": "Sphere001",
      "rotation": [
        -0.7071067811865475,
        0.0,
        0.0,
        0.7071067811865476
      ],
      "scale": [
        100.0,
        100.0,
        100.0
      ],
      "translation": [
        0.3086549937725067,
        60.151798248291016,
        -4.774040222167969
      ]
    },
    {
      "children": [
        1
      ],
      "name": "RootNode"
    },
    {
      "children": [
        2
      ],
      "name": "SKY BOX 8K - NIGHT FOREST SCENE WITH AURORA SKY",
      "rotation": [
        1.1102230246251565e-16,
        0.0,
        0.0,
        1.0
      ],
      "scale": [
        0.02539999969303608,
        0.02539999969303608,
        0.02539999969303608
      ],
      "translation": [
        0.0,
        0.0,
        0.0
      ]
    }
  ],
  "samplers": [
    {
      "magFilter": 9729,
      "minFilter": 9729,
      "wrapS": 10497,
      "wrapT": 10497
    }
  ],
  "scene": 0,
  "scenes": [
    {
      "nodes": [
        3
      ]
    }
  ],
  "textures": [
    {
      "sampler": 0,
      "source": 0
    }
  ]
}
